<svg xmlns="http://www.w3.org/2000/svg" xmlns:xlink="http://www.w3.org/1999/xlink" width="1092" height="1080" viewBox="0 0 1092 1080">
  <defs>
    <linearGradient id="linear-gradient" x1="0.669" y1="-0.1" x2="0.43" y2="0.816" gradientUnits="objectBoundingBox">
      <stop offset="0" stop-color="#aa80f9"/>
      <stop offset="0.996" stop-color="#6165d7"/>
    </linearGradient>
    <linearGradient id="linear-gradient-2" x1="4.735" y1="-0.731" x2="5.662" y2="-0.731" gradientUnits="objectBoundingBox">
      <stop offset="0" stop-color="#ff9085"/>
      <stop offset="1" stop-color="#fb6fbb"/>
    </linearGradient>
    <clipPath id="clip-path">
      <path id="Path_19599" data-name="Path 19599" d="M1860.18,1840.3c-28.107,7.32-49.377-25.7-30.911-48.114a235.982,235.982,0,0,0,22.463-32.4c39.1-67.983,18.892-112.614,54.107-235.678,22.266-77.812,38.589-131.892,85.61-150.973,36.848-14.952,88.136-6.622,113.092,22.436,20.75,24.161,25.724,65.479,23.3,93.436-1.979,22.784-8.98,37.9.655,52.644,9.847,15.072,25.454,11.985,35.249,23.792,19.865,23.943-9.315,78.832-14.031,87.7-52.461,98.68-167.65,144.714-218.139,164.188A660.837,660.837,0,0,1,1860.18,1840.3Z" transform="translate(-1822.346 -1365.847)" fill="none"/>
    </clipPath>
    <clipPath id="clip-path-2">
      <path id="Path_19604" data-name="Path 19604" d="M1784.974,2236.246c42.747,25.04,100.774,50.839,166.842,57.358,16.861,1.664,121.017,11.941,132.959-31.31,4.207-15.235-6.581-24.246-1.313-44.713,6.243-24.253,25.385-27.125,49.5-47.929,14.391-12.413,56.508-48.74,43.78-89.642-7.6-24.442-34.45-49.412-61.181-57.5-39.208-11.862-70.487,14.922-122.627,61.157-46.221,40.986-49.052,55.957-82.851,84.889C1885,2190.031,1845.644,2216.813,1784.974,2236.246Z" transform="translate(-1784.974 -2019.708)" fill="url(#linear-gradient)"/>
    </clipPath>
    <linearGradient id="linear-gradient-4" x1="1.74" y1="0.831" x2="0.566" y2="0.511" gradientUnits="objectBoundingBox">
      <stop offset="0" stop-color="#311944"/>
      <stop offset="1" stop-color="#a03976"/>
    </linearGradient>
    <linearGradient id="linear-gradient-5" x1="2.229" y1="0.823" x2="0.272" y2="0.477" xlink:href="#linear-gradient-4"/>
    <linearGradient id="linear-gradient-6" x1="0.495" y1="0.117" x2="0.513" y2="1.536" xlink:href="#linear-gradient-2"/>
    <linearGradient id="linear-gradient-10" x1="0.234" y1="0.5" x2="1.234" y2="0.5" gradientUnits="objectBoundingBox">
      <stop offset="0.494" stop-color="#ebeff2"/>
      <stop offset="1" stop-color="#fff"/>
    </linearGradient>
    <linearGradient id="linear-gradient-11" y1="0.5" x2="1" y2="0.5" gradientUnits="objectBoundingBox">
      <stop offset="0.004" stop-color="#e38ddd"/>
      <stop offset="1" stop-color="#9571f6"/>
    </linearGradient>
    <linearGradient id="linear-gradient-12" x1="0.505" y1="0.386" x2="0.42" y2="5.917" gradientUnits="objectBoundingBox">
      <stop offset="0" stop-color="#40447e"/>
      <stop offset="0.996" stop-color="#3c3b6b"/>
    </linearGradient>
    <linearGradient id="linear-gradient-13" x1="0" y1="0.5" x2="1" y2="0.5" xlink:href="#linear-gradient-2"/>
    <linearGradient id="linear-gradient-14" x1="-8.576" y1="0.82" x2="-7.642" y2="5.546" gradientUnits="objectBoundingBox">
      <stop offset="0" stop-color="#ffc444"/>
      <stop offset="0.996" stop-color="#f36f56"/>
    </linearGradient>
    <linearGradient id="linear-gradient-15" x1="2.975" y1="-0.573" x2="3.972" y2="-0.573" gradientUnits="objectBoundingBox">
      <stop offset="0" stop-color="#444b8c"/>
      <stop offset="0.996" stop-color="#26264f"/>
    </linearGradient>
    <linearGradient id="linear-gradient-16" x1="0" y1="0.5" x2="1" y2="0.5" xlink:href="#linear-gradient-14"/>
    <linearGradient id="linear-gradient-17" x1="8.526" y1="-10.765" x2="9.489" y2="-10.765" xlink:href="#linear-gradient-15"/>
    <linearGradient id="linear-gradient-19" x1="-7.034" y1="0.836" x2="-7.834" y2="0.171" xlink:href="#linear-gradient-12"/>
    <linearGradient id="linear-gradient-20" x1="-13.136" y1="0.673" x2="-14.27" y2="0.024" xlink:href="#linear-gradient-12"/>
    <linearGradient id="linear-gradient-21" x1="-5.77" y1="0.386" x2="-5.218" y2="2.163" xlink:href="#linear-gradient-14"/>
    <linearGradient id="linear-gradient-22" x1="-6.224" y1="1.627" x2="-5.971" y2="0.675" xlink:href="#linear-gradient-14"/>
    <linearGradient id="linear-gradient-23" x1="-8.523" y1="0.293" x2="-7.958" y2="2.456" xlink:href="#linear-gradient-14"/>
    <linearGradient id="linear-gradient-24" x1="-5.876" y1="3.338" x2="-5.996" y2="0.667" gradientUnits="objectBoundingBox">
      <stop offset="0" stop-color="#311944"/>
      <stop offset="1" stop-color="#893976"/>
    </linearGradient>
    <linearGradient id="linear-gradient-25" x1="-20.289" y1="-0.345" x2="-20.162" y2="1.229" xlink:href="#linear-gradient-24"/>
    <linearGradient id="linear-gradient-27" x1="-4.021" y1="0.691" x2="-4.21" y2="0.249" xlink:href="#linear-gradient-15"/>
    <linearGradient id="linear-gradient-28" x1="-4.463" y1="1.422" x2="-4.042" y2="0.015" xlink:href="#linear-gradient-24"/>
    <linearGradient id="linear-gradient-29" x1="-5.132" y1="0.5" x2="-4.132" y2="0.5" xlink:href="#linear-gradient-24"/>
    <linearGradient id="linear-gradient-31" x1="0.537" y1="0.002" x2="0.441" y2="1.962" xlink:href="#linear-gradient-14"/>
    <linearGradient id="linear-gradient-32" x1="1.72" y1="0.388" x2="1.042" y2="-1.154" gradientUnits="objectBoundingBox">
      <stop offset="0" stop-color="#311944"/>
      <stop offset="1" stop-color="#6b3976"/>
    </linearGradient>
    <linearGradient id="linear-gradient-34" x1="1.732" y1="0.024" x2="0.947" y2="-2.165" xlink:href="#linear-gradient-32"/>
    <clipPath id="clip-UI_Elements_-Colors_1">
      <rect width="1092" height="1080"/>
    </clipPath>
  </defs>
  <g id="UI_Elements_-Colors_1" data-name="UI Elements -Colors – 1" clip-path="url(#clip-UI_Elements_-Colors_1)">
    <g id="Order_closed" data-name="Order closed" transform="translate(-484.101 -455)">
      <path id="Path_19593" data-name="Path 19593" d="M1703.364,966.284c-26.842-175.692-136.892-391.542-354.311-414.131,0,0-165.074-20.079-327.8,10.353C924.674,580.567,839.989,634.33,786.4,711.6S714.919,883.1,736.642,972.926c14.109,58.345,23.643,118.73,21.026,178.682-4.554,104.343-1.934,201.739,99.328,263.965,90.415,55.562,204.2,104.565,312.76,113.148,73.774,5.833,156.507-3.606,227.611-22.813C1759.731,1408.023,1730.205,1141.975,1703.364,966.284Z" transform="translate(-147.291 -54.831)" fill="#f4f7fa"/>
      <g id="Group_17926" data-name="Group 17926" transform="translate(998.172 814.943)">
        <path id="Path_19594" data-name="Path 19594" d="M1878.335,1837.643c-30.786,8.523-54.756-26.95-35.357-52.329a234.747,234.747,0,0,0,17.005-25.527c39.1-67.983,18.892-112.614,54.107-235.678,22.266-77.812,38.589-131.892,85.61-150.973,36.848-14.952,88.137-6.622,113.092,22.436,20.75,24.161,25.724,65.479,23.3,93.436-1.979,22.784-8.98,37.9.655,52.644,9.847,15.072,25.454,11.985,35.249,23.792,19.865,23.943-9.315,78.832-14.031,87.7-52.46,98.68-167.651,144.714-218.139,164.188C1922.811,1823.9,1902.237,1831.025,1878.335,1837.643Z" transform="translate(-1815.829 -1365.847)" fill="url(#linear-gradient-2)"/>
        <g id="Group_17921" data-name="Group 17921" transform="translate(14.769 0)">
          <g id="Group_17920" data-name="Group 17920" clip-path="url(#clip-path)">
            <g id="Group_17919" data-name="Group 17919" transform="translate(-111.771 -22.691)" opacity="0.5" style="mix-blend-mode: soft-light;isolation: isolate">
              <path id="Path_19595" data-name="Path 19595" d="M1539.8,1837.279l-.3-2.658c49.351-5.524,93.266-15.947,130.528-30.979,54.921-22.155,93.7-53.792,115.254-94.033,16.887-31.525,22.931-67.149,31.3-116.456,6.678-39.363,7.861-67.867,8.9-93.015,1.365-32.894,2.443-58.875,15.3-93.681,13.039-35.317,34.268-68.3,63.1-98.031l1.92,1.863c-28.568,29.463-49.6,62.13-62.508,97.094-12.706,34.412-13.776,60.208-15.132,92.866-1.047,25.227-2.234,53.821-8.941,93.352-8.091,47.691-14.482,85.361-31.576,117.271-21.86,40.808-61.094,72.855-116.611,95.252C1633.548,1821.245,1589.4,1831.727,1539.8,1837.279Z" transform="translate(-1539.506 -1308.426)" fill="#fff"/>
              <path id="Path_19596" data-name="Path 19596" d="M2150.506,1658.456l-1.191-.93c-.228-.178-23-18.168-41.872-51.183-17.421-30.47-35.038-80.365-20.033-145.026l2.606.6c-14.808,63.816,2.566,113.039,19.749,143.094,16.18,28.3,35.182,45.346,40.027,49.44,39-64.244,87.651-98.325,121.7-115.623,37.19-18.893,65.553-22.42,65.835-22.453l.315,2.657c-.278.033-28.263,3.529-65.052,22.24-33.94,17.261-82.537,51.378-121.311,115.885Z" transform="translate(-1867.465 -1400.898)" fill="#fff"/>
              <path id="Path_19597" data-name="Path 19597" d="M1989.241,1962.706l-.332-.914c-.157-.435-16.013-43.883-40.432-84.324-24.262-40.18-97.465-70.81-98.2-71.114l1.023-2.473c.744.308,74.751,31.27,99.469,72.2,22.584,37.4,37.88,77.35,40.317,83.875,86.051-4.1,219.135-168.829,220.473-170.5l2.088,1.674a966.42,966.42,0,0,1-78.48,84.541c-59.506,56.486-108.275,85.756-144.953,87Z" transform="translate(-1727.467 -1599.369)" fill="#fff"/>
              <path id="Path_19598" data-name="Path 19598" d="M1941.364,2287.075c-29.814,0-48.87-2.487-49.143-2.523l-2.643-.354,1.864-1.907c29.475-30.158,36.058-68.1,19.566-112.764-12.347-33.439-33.691-58.238-33.906-58.485l2.02-1.754c.217.25,21.881,25.42,34.4,59.312,16.291,44.122,9.957,83.341-18.3,113.608,9.68,1.046,45.031,4.189,91.248.3,50-4.208,123.315-17.748,188.611-58.353l126.883-78.9,1.414,2.271-126.884,78.9c-65.77,40.9-139.555,54.524-189.869,58.752C1969.891,2286.587,1954.572,2287.075,1941.364,2287.075Z" transform="translate(-1743.693 -1792.808)" fill="#fff"/>
            </g>
          </g>
        </g>
        <g id="Group_17925" data-name="Group 17925" transform="translate(0 258.389)">
          <g id="Group_17924" data-name="Group 17924">
            <path id="Path_19600" data-name="Path 19600" d="M1784.974,2236.246c42.747,25.04,100.774,50.839,166.842,57.358,16.861,1.664,121.017,11.941,132.959-31.31,4.207-15.235-6.581-24.246-1.313-44.713,6.243-24.253,25.385-27.125,49.5-47.929,14.391-12.413,56.508-48.74,43.78-89.642-7.6-24.442-34.45-49.412-61.181-57.5-39.208-11.862-70.487,14.922-122.627,61.157-46.221,40.986-49.052,55.957-82.851,84.889C1885,2190.031,1845.644,2216.813,1784.974,2236.246Z" transform="translate(-1784.974 -2019.708)" fill="url(#linear-gradient)"/>
            <g id="Group_17923" data-name="Group 17923" clip-path="url(#clip-path-2)">
              <g id="Group_17922" data-name="Group 17922" transform="translate(-191.581 -34.173)" opacity="0.5" style="mix-blend-mode: soft-light;isolation: isolate">
                <path id="Path_19601" data-name="Path 19601" d="M1513.722,2184.519a276.576,276.576,0,0,1-78.487-11.288c-49.574-14.6-95.015-42.225-135.063-82.109l1.887-1.9c39.729,39.566,84.79,66.966,133.931,81.438,65.457,19.276,135.155,13.6,207.161-16.878,75.018-31.75,133.746-82.454,169.8-119.4,24.935-25.549,42.592-59.583,52.483-101.156l2.6.619c-10,42.051-27.893,76.505-53.17,102.4-36.228,37.12-95.246,88.071-170.675,119.995C1599.7,2175.082,1556.051,2184.519,1513.722,2184.519Z" transform="translate(-1300.172 -1933.231)" fill="#fff"/>
                <path id="Path_19602" data-name="Path 19602" d="M2395.44,2144.5l-.189-1.188c-.138-.875-13.232-88.115,42.187-144.03l1.9,1.884c-50.947,51.4-42.958,129.938-41.607,140.536,124.737-6.79,162.729-74.766,171.421-95.5.244-.58.4-.939.477-1.063l2.3,1.36-1.152-.68,1.167.653c-.061.118-.166.377-.328.764-8.873,21.161-47.713,90.707-174.979,97.2Z" transform="translate(-1961.631 -1973.178)" fill="#fff"/>
                <path id="Path_19603" data-name="Path 19603" d="M2293.934,2229.537h-.443c-28.046-.084-72.3-8.745-123.865-49.521l-.561-.443.058-.713c.053-.667,5.905-67.543,52.618-136.1l47.052-69.052,2.21,1.506-47.052,69.053c-43.722,64.165-51.339,126.783-52.094,134.1,28.153,22.15,71.934,48.343,121.642,48.492h.423c29.573,0,47.372-9.371,47.549-9.466l1.266,2.356C2341.99,2220.155,2324.158,2229.537,2293.934,2229.537Z" transform="translate(-1825.702 -1957.715)" fill="#fff"/>
              </g>
            </g>
          </g>
        </g>
      </g>
      <g id="Group_17928" data-name="Group 17928" transform="translate(1005.349 455)">
        <path id="Path_19605" data-name="Path 19605" d="M2454.386,1011.747c4.535,2.3,10.233.188,12.726-4.722s.838-10.758-3.7-13.061c-.235-.119-.475-.22-.715-.316a57.445,57.445,0,0,0,1.9-8.2c.26,0,.521-.005.786-.029a10.434,10.434,0,0,0,9.173-10.62,8.837,8.837,0,0,0-9.565-8.95c-.271.024-.536.067-.8.114a52.679,52.679,0,0,0-2.215-7.826c.238-.14.475-.283.707-.445a10.434,10.434,0,0,0,3.161-13.672,8.837,8.837,0,0,0-12.87-2.441c-.227.159-.44.331-.651.505a46.762,46.762,0,0,0-5.74-5.359c.146-.239.288-.481.418-.736,2.493-4.91,5.751-10.275,1.18-12.506-10.573-5.162-15.11-.743-17.6,4.167-.129.255-.24.513-.347.772a46.687,46.687,0,0,0-7.714-1.472c.016-.273.029-.547.023-.824-.108-5.4,1.5-8.328-3.7-8.429-11.326-.22-15.147,4.7-15.039,10.1.006.283.029.559.058.833a52.7,52.7,0,0,0-7.625,2.83c-.118-.241-.24-.481-.38-.714a8.836,8.836,0,0,0-12.87-2.44,10.433,10.433,0,0,0-3.161,13.672c.137.228.288.441.44.651a57.509,57.509,0,0,0-5.493,6.373c-.219-.138-.442-.272-.677-.391-4.535-2.3-10.233-.188-12.726,4.722s-.838,10.758,3.7,13.061c.235.119.474.219.715.315a57.448,57.448,0,0,0-1.9,8.2c-.26,0-.521,0-.786.028a10.434,10.434,0,0,0-9.172,10.62,8.836,8.836,0,0,0,9.565,8.95c.27-.024.536-.067.8-.114a52.716,52.716,0,0,0,2.215,7.826c-.238.139-.475.283-.706.445a10.434,10.434,0,0,0-3.161,13.672c2.681,4.45,11.557,6.517,15.983,3.416.227-.159-2.673-1.305-2.463-1.479a46.75,46.75,0,0,0,5.741,5.359c-.145.24-.289.482-.418.736-2.493,4.911-.838,10.758,3.7,13.061s10.233.188,12.726-4.722c.129-.255.24-.513.347-.771a46.8,46.8,0,0,0,7.714,1.473c-.016.273-.029.546-.023.823a8.836,8.836,0,0,0,9.565,8.949,10.434,10.434,0,0,0,9.172-10.62c-.005-.282-.029-.558-.057-.833a52.762,52.762,0,0,0,7.626-2.83c.118.241.24.48.38.713a8.836,8.836,0,0,0,12.87,2.441,10.435,10.435,0,0,0,3.161-13.672c-.138-.228-.288-.441-.441-.651a57.474,57.474,0,0,0,5.492-6.373C2453.929,1011.493,2454.151,1011.627,2454.386,1011.747Zm-56.534.717c-16.466-8.36-22.477-29.591-13.424-47.42s29.739-25.506,46.2-17.146,22.476,29.591,13.424,47.42S2414.317,1020.824,2397.851,1012.464Z" transform="translate(-2136.265 -734.85)" fill="url(#linear-gradient-4)"/>
        <path id="Path_19606" data-name="Path 19606" d="M2539.271,1001a10.434,10.434,0,0,0,9.172-10.62,8.837,8.837,0,0,0-9.565-8.95c-.271.024-.536.067-.8.114a52.674,52.674,0,0,0-2.215-7.826c.238-.139.475-.283.707-.445,4.427-3.1,9.9-10.595,6.78-14.746-5.927-7.878-12.062-4.468-16.489-1.367-.227.159-.44.331-.651.5a46.777,46.777,0,0,0-5.741-5.358c.146-.239.289-.481.418-.736a10.3,10.3,0,0,0,.581-8.124q-6.414,11.288-12.637,22.681c13.136,9.626,17.318,28.6,9.107,44.768-6.958,13.7-20.789,21.4-34.295,20.436-.6,1.562-1.194,3.133-1.839,4.68-1.75,4.2-3.739,8.311-5.731,12.419q1.879.354,3.772.554c-.016.273-.029.547-.023.824.108,5.4,3.389,10,12.766,9.5,5.187-.275,6.079-5.764,5.971-11.168-.006-.282-.029-.558-.057-.833a52.766,52.766,0,0,0,7.626-2.83c.118.241.24.48.38.713,2.682,4.45,11.982,6.34,16.408,3.239s2.3-10.02-.377-14.47c-.138-.228-.288-.441-.441-.651a57.423,57.423,0,0,0,5.493-6.373c.22.138.442.272.677.391,4.535,2.3,10.233.188,12.726-4.722s.838-10.758-3.7-13.061c-.235-.119-.475-.219-.716-.315a57.486,57.486,0,0,0,1.9-8.2C2538.744,1001.025,2539.005,1001.021,2539.271,1001Z" transform="translate(-2210.146 -750.423)" fill="url(#linear-gradient-5)"/>
        <path id="Path_19607" data-name="Path 19607" d="M2466.729,1012.31c4.535,2.3,10.233.188,12.726-4.722s.838-10.758-3.7-13.061c-.235-.119-.475-.219-.715-.315a57.555,57.555,0,0,0,1.9-8.2c.26,0,.521-.005.786-.029a10.434,10.434,0,0,0,9.172-10.62,8.836,8.836,0,0,0-9.565-8.95c-.27.024-.536.067-.8.114a52.706,52.706,0,0,0-2.215-7.826c.238-.139.475-.283.706-.445a10.434,10.434,0,0,0,3.161-13.672,8.836,8.836,0,0,0-12.87-2.441c-.227.159-.44.331-.651.5a46.717,46.717,0,0,0-5.74-5.358c.146-.24.289-.482.417-.736,2.493-4.911.838-10.758-3.7-13.061s-10.233-.188-12.726,4.722c-.129.255-.241.513-.348.771a46.779,46.779,0,0,0-7.714-1.472c.016-.273.029-.546.023-.823a8.837,8.837,0,0,0-9.565-8.95,10.433,10.433,0,0,0-9.172,10.62c.006.282.029.558.057.833a52.753,52.753,0,0,0-7.625,2.83c-.118-.241-.24-.481-.381-.713a8.836,8.836,0,0,0-12.87-2.441,10.434,10.434,0,0,0-3.161,13.672c.137.228.288.441.44.652a57.545,57.545,0,0,0-5.493,6.373c-.219-.138-.441-.272-.677-.391-4.535-2.3-10.233-.188-12.726,4.722s-.838,10.758,3.7,13.06c.235.119.475.22.715.316a57.457,57.457,0,0,0-1.9,8.2c-.26,0-.521.005-.785.028a10.435,10.435,0,0,0-9.173,10.62,8.836,8.836,0,0,0,9.565,8.949c.27-.024.536-.066.8-.113a52.822,52.822,0,0,0,2.215,7.826c-.238.139-.475.283-.706.445a10.434,10.434,0,0,0-3.161,13.672,8.836,8.836,0,0,0,12.869,2.441c.227-.159.44-.331.651-.505a46.751,46.751,0,0,0,5.741,5.359c-.146.239-.289.481-.418.736-2.493,4.911-.838,10.758,3.7,13.061s10.233.188,12.726-4.723c.129-.254.24-.513.347-.771a46.735,46.735,0,0,0,7.714,1.473c-.016.273-.029.547-.023.823a8.837,8.837,0,0,0,9.565,8.95,10.434,10.434,0,0,0,9.172-10.62c-.006-.283-.029-.558-.057-.833a52.705,52.705,0,0,0,7.625-2.829c.118.241.24.481.381.713a8.836,8.836,0,0,0,12.87,2.441,10.435,10.435,0,0,0,3.162-13.672c-.137-.228-.288-.441-.441-.651a57.433,57.433,0,0,0,5.493-6.373C2466.271,1012.056,2466.494,1012.19,2466.729,1012.31Zm-56.535.717c-16.466-8.36-22.476-29.591-13.424-47.42s29.739-25.506,46.205-17.146,22.476,29.591,13.424,47.42S2426.66,1021.387,2410.194,1013.027Z" transform="translate(-2143.73 -734.858)" fill="url(#linear-gradient-6)"/>
        <g id="Group_17927" data-name="Group 17927" transform="translate(0 0)">
          <path id="Path_19608" data-name="Path 19608" d="M1999.938,639.237c8.884,4.51,20.044.369,24.929-9.251s1.642-21.074-7.242-25.584c-.46-.234-.93-.43-1.4-.618a112.638,112.638,0,0,0,3.729-16.054c.509,0,1.02-.01,1.54-.056,10.135-.9,18.18-10.217,17.968-20.8s-8.6-18.435-18.737-17.532c-.53.048-1.05.131-1.567.223a103.363,103.363,0,0,0-4.34-15.331c.466-.273.93-.555,1.383-.872,8.671-6.075,11.444-18.066,6.192-26.782s-16.539-10.856-25.21-4.781c-.445.311-.863.648-1.276.989a91.542,91.542,0,0,0-11.246-10.5c.286-.468.565-.943.819-1.441,4.883-9.619,11.266-20.127,2.313-24.5-20.712-10.111-29.6-1.455-34.484,8.164-.253.5-.471,1-.68,1.511a91.574,91.574,0,0,0-15.111-2.884c.032-.535.056-1.071.046-1.613-.212-10.586,2.928-16.314-7.245-16.512-22.186-.431-29.671,9.2-29.459,19.784.011.553.057,1.094.112,1.632a103.291,103.291,0,0,0-14.938,5.543c-.231-.472-.471-.941-.745-1.4-5.251-8.716-16.539-10.856-25.21-4.781s-11.444,18.066-6.192,26.782c.269.447.563.864.863,1.276a112.636,112.636,0,0,0-10.76,12.484c-.43-.269-.866-.533-1.326-.767-8.884-4.51-20.045-.369-24.929,9.251s-1.641,21.074,7.242,25.584c.46.234.93.43,1.4.618a112.65,112.65,0,0,0-3.73,16.054c-.509,0-1.02.01-1.539.056-10.136.9-18.18,10.218-17.968,20.8s8.6,18.435,18.737,17.531c.53-.047,1.05-.13,1.567-.222a103.347,103.347,0,0,0,4.339,15.331c-.466.273-.93.554-1.383.872-8.672,6.075-11.444,18.066-6.193,26.782s22.638,12.765,31.31,6.69c.444-.311-5.237-2.556-4.824-2.9a91.627,91.627,0,0,0,11.246,10.5c-.285.468-.566.943-.818,1.441-4.884,9.619-1.641,21.074,7.242,25.584s20.045.369,24.929-9.25c.253-.5.47-1,.68-1.512a91.556,91.556,0,0,0,15.111,2.885c-.032.535-.056,1.07-.046,1.613.213,10.586,8.6,18.435,18.737,17.531s18.18-10.218,17.968-20.8c-.011-.553-.058-1.094-.112-1.632a103.278,103.278,0,0,0,14.937-5.543c.231.472.471.941.745,1.4,5.251,8.716,16.539,10.857,25.21,4.781s11.444-18.066,6.192-26.782c-.269-.446-.564-.863-.863-1.276a112.6,112.6,0,0,0,10.76-12.484C1999.042,638.74,1999.478,639,1999.938,639.237Zm-110.746,1.4c-32.255-16.376-44.028-57.965-26.3-92.891s58.256-49.963,90.511-33.587,44.029,57.966,26.3,92.891S1921.448,657.019,1889.193,640.642Z" transform="translate(-1803.137 -455)" fill="url(#linear-gradient-4)"/>
          <path id="Path_19609" data-name="Path 19609" d="M2166.219,618.181c10.135-.9,18.179-10.218,17.968-20.8s-8.6-18.436-18.737-17.531c-.53.047-1.05.131-1.567.223a103.36,103.36,0,0,0-4.339-15.331c.466-.272.929-.555,1.383-.872,8.672-6.075,19.4-20.755,13.282-28.886-11.612-15.432-23.629-8.752-32.3-2.677-.445.311-.863.647-1.275.989a91.585,91.585,0,0,0-11.246-10.5c.286-.469.565-.943.819-1.441a20.184,20.184,0,0,0,1.137-15.914q-12.563,22.112-24.753,44.429c25.732,18.857,33.924,56.015,17.84,87.7-13.63,26.846-40.724,41.92-67.179,40.031-1.18,3.061-2.339,6.137-3.6,9.168-3.429,8.226-7.325,16.282-11.226,24.327q3.68.693,7.388,1.085c-.031.535-.056,1.071-.045,1.613.213,10.586,6.639,19.58,25.009,18.606,10.162-.539,11.908-11.291,11.7-21.878-.011-.553-.057-1.094-.112-1.631a103.261,103.261,0,0,0,14.937-5.543c.231.472.471.941.746,1.4,5.251,8.716,23.47,12.419,32.141,6.344s4.512-19.629-.739-28.345c-.269-.447-.563-.864-.863-1.276a112.675,112.675,0,0,0,10.759-12.484c.43.269.866.533,1.326.766,8.884,4.511,20.044.369,24.929-9.251s1.641-21.074-7.243-25.584c-.46-.234-.93-.43-1.4-.618a112.613,112.613,0,0,0,3.729-16.054C2165.189,618.236,2165.7,618.227,2166.219,618.181Z" transform="translate(-1947.863 -485.507)" fill="url(#linear-gradient-5)"/>
          <path id="Path_19610" data-name="Path 19610" d="M2024.118,640.34c8.884,4.511,20.045.369,24.929-9.251s1.641-21.074-7.242-25.584c-.46-.234-.93-.43-1.4-.618a112.654,112.654,0,0,0,3.729-16.054c.51,0,1.021-.01,1.54-.056,10.135-.9,18.18-10.217,17.968-20.8s-8.6-18.435-18.736-17.532c-.53.047-1.051.131-1.568.223a103.341,103.341,0,0,0-4.339-15.33c.466-.273.93-.555,1.383-.872,8.672-6.075,11.444-18.066,6.192-26.782s-16.539-10.857-25.21-4.781c-.445.311-.862.647-1.275.989a91.566,91.566,0,0,0-11.246-10.5c.286-.469.566-.943.818-1.442,4.884-9.619,1.642-21.074-7.242-25.584s-20.045-.369-24.929,9.251c-.253.5-.471,1-.681,1.511a91.564,91.564,0,0,0-15.11-2.884c.031-.535.056-1.071.045-1.613-.212-10.586-8.6-18.435-18.737-17.531s-18.18,10.217-17.968,20.8c.011.554.058,1.094.112,1.632a103.313,103.313,0,0,0-14.938,5.544c-.231-.472-.47-.942-.745-1.4-5.251-8.716-16.539-10.857-25.21-4.781s-11.444,18.066-6.192,26.782c.269.447.564.864.863,1.276a112.609,112.609,0,0,0-10.76,12.484c-.429-.27-.865-.533-1.326-.767-8.884-4.511-20.045-.369-24.929,9.25s-1.642,21.074,7.242,25.585c.46.234.93.43,1.4.618a112.611,112.611,0,0,0-3.729,16.054c-.509,0-1.021.01-1.54.056-10.135.9-18.18,10.218-17.968,20.8s8.6,18.435,18.737,17.532c.529-.047,1.05-.13,1.567-.223a103.325,103.325,0,0,0,4.34,15.33c-.466.273-.93.555-1.384.872-8.671,6.075-11.444,18.066-6.192,26.781s16.539,10.857,25.21,4.782c.445-.312.863-.648,1.276-.989a91.551,91.551,0,0,0,11.246,10.5c-.286.469-.565.943-.819,1.442-4.883,9.619-1.641,21.074,7.243,25.584s20.045.369,24.929-9.251c.253-.5.471-1,.68-1.511a91.588,91.588,0,0,0,15.111,2.884c-.032.535-.056,1.071-.046,1.613.212,10.586,8.6,18.435,18.736,17.531s18.18-10.218,17.968-20.8c-.011-.553-.057-1.094-.112-1.631a103.334,103.334,0,0,0,14.938-5.543c.231.472.47.941.745,1.4,5.251,8.716,16.539,10.857,25.21,4.781s11.444-18.066,6.192-26.782c-.269-.446-.564-.864-.863-1.276a112.616,112.616,0,0,0,10.76-12.484C2023.222,639.843,2023.658,640.106,2024.118,640.34Zm-110.746,1.405c-32.255-16.377-44.028-57.965-26.3-92.892s58.255-49.963,90.51-33.586,44.029,57.965,26.3,92.891S1945.628,658.121,1913.373,641.745Z" transform="translate(-1817.761 -455.016)" fill="url(#linear-gradient-6)"/>
        </g>
      </g>
      <g id="Group_17931" data-name="Group 17931" transform="translate(484.101 872.681)">
        <g id="Group_17930" data-name="Group 17930" transform="translate(0)">
          <path id="Path_19611" data-name="Path 19611" d="M1601.98,2854.063l-1052.649-9.1v26.922c0,7.307,4.592,13.52,10.81,14.628L857.8,2939.529a41.231,41.231,0,0,0,10.68.5l722.063-60.446c6.446-.539,11.439-6.772,11.439-14.28Z" transform="translate(-523.554 -2318.194)" fill="#bfc8d6"/>
          <g id="Group_17929" data-name="Group 17929">
            <path id="Path_19612" data-name="Path 19612" d="M1193.061,1532.637v450.381a23.293,23.293,0,0,1-5.378,14.916,18.2,18.2,0,0,1-12.52,6.753l-483.693,35.677-180.343,13.344H511.1l-1.221.026-3.919.237c-11.974.881-21.859-8.523-21.859-20.958V1534.792c0-12.434,10.034-22.836,22.008-22.836h669.036C1185.016,1511.956,1193.061,1521.4,1193.061,1532.637Z" transform="translate(-484.101 -1511.956)" fill="#bfc8d6"/>
            <path id="Path_19613" data-name="Path 19613" d="M1220.141,1532.637v450.381c0,8.68-4.818,16.43-11.529,19.842-.1.05-.222.1-.322.148a17.309,17.309,0,0,1-1.973.824c-.149.055-.3.109-.454.163-.122.027-.247.068-.355.095a16.616,16.616,0,0,1-3.311.6l-3.391.221L717.4,2040.331h-.026l-184.226,13.583a19.8,19.8,0,0,1-5.166-.191,2.782,2.782,0,0,0-.475-.015h-.027a5.605,5.605,0,0,1-1.355-.367c-8.6-2.347-14.942-10.389-14.942-20.328V1534.792c0-12.434,10.005-22.836,21.978-22.836H1202.2C1212.067,1511.956,1220.141,1521.4,1220.141,1532.637Z" transform="translate(-500.48 -1511.956)" fill="#fff"/>
            <path id="Path_19614" data-name="Path 19614" d="M1226.307,2017.694l-623.144,42.781c-9.743.669-17.66-7.017-17.66-17.169V1607.115c0-10.152,7.917-18.416,17.66-18.458l623.144-2.687c8.137-.035,14.718,7.433,14.718,16.68v397.291C1241.025,2009.188,1234.443,2017.135,1226.307,2017.694Z" transform="translate(-545.432 -1556.722)" fill="#d8dee8"/>
            <path id="Path_19615" data-name="Path 19615" d="M1449.513,1534.435c0,4.629-3.443,8.393-7.7,8.407s-7.713-3.737-7.713-8.377,3.455-8.4,7.713-8.407S1449.513,1529.805,1449.513,1534.435Z" transform="translate(-1058.688 -1520.485)" fill="#fff"/>
            <path id="Path_19616" data-name="Path 19616" d="M533.56,2054.425l665.658-49,3.388-.249a17.957,17.957,0,0,0,11.784-5.964c-47.9-2.621-77.654-19.62-96.847-37.185-38.542-35.274-31.857-70.06-73.421-93.251-51.841-28.927-92.6,7.727-131.943-28.438-23.849-21.926-12.141-38.276-41.487-71.041-32.5-36.29-53.665-24.091-86.331-56.753-41.3-41.3-20.646-73.429-56.224-103.08-43.161-35.971-89.708-2.677-130.793-37.175-17.721-14.879-27.444-36.51-32.521-59.515h-31.26c-11.972,0-21.706,10.081-21.706,22.517v498.218C511.856,2045.94,521.588,2055.3,533.56,2054.425Z" transform="translate(-500.888 -1512.449)" fill="#fff" opacity="0.48" style="mix-blend-mode: soft-light;isolation: isolate"/>
          </g>
          <path id="Path_19617" data-name="Path 19617" d="M1256.794,2751.677l-707.463,51.841,308.467,54.94a41.231,41.231,0,0,0,10.68.5l733.5-61.4-333.932-45.524A54.021,54.021,0,0,0,1256.794,2751.677Z" transform="translate(-523.554 -2261.685)" fill="url(#linear-gradient-10)"/>
          <path id="Path_19618" data-name="Path 19618" d="M810.558,2817.171l588.984-43.8,182.285,24.65-583.91,46.823Z" transform="translate(-681.551 -2274.892)" fill="#d8dee8"/>
        </g>
      </g>
      <path id="Path_19619" data-name="Path 19619" d="M1256.717,1511.956v449.718a40.243,40.243,0,0,1-2.038,12.041,42.867,42.867,0,0,1-36.923,29.507L733.331,2039.78l-28.568,2.156a45.672,45.672,0,0,1-19.261-2.562,38.231,38.231,0,0,1-23.965-24.924,37.387,37.387,0,0,1-1.415-10.984v-491.51Z" transform="translate(-106.461 -639.275)" fill="#bfc8d6" opacity="0.3" style="mix-blend-mode: multiply;isolation: isolate"/>
      <g id="Group_17943" data-name="Group 17943" transform="translate(563.871 583.042)">
        <path id="Path_19620" data-name="Path 19620" d="M1244.242,794.847l-513.137-15.81c-24.866-.766-45.143,17.357-45.143,40.484v731.155c0,23.127,20.278,40.345,45.143,38.469l513.137-38.716c21.5-1.622,38.827-20.217,38.827-41.544V834.658A40.162,40.162,0,0,0,1244.242,794.847Z" transform="translate(-685.962 -779.014)" fill="url(#linear-gradient-11)"/>
        <path id="Path_19621" data-name="Path 19621" d="M722.585,1574.167V835.69c0-13.309,11.66-23.76,26-23.343l521.874,15.17a23.15,23.15,0,0,1,22.413,22.955v683.457a24.456,24.456,0,0,1-22.413,23.955L748.581,1596.35C734.246,1597.407,722.585,1587.477,722.585,1574.167Z" transform="translate(-708.113 -799.167)" fill="#fff" opacity="0.74" style="mix-blend-mode: soft-light;isolation: isolate"/>
        <path id="Path_19622" data-name="Path 19622" d="M1244.243,794.847l-513.137-15.81c-24.866-.766-45.143,17.357-45.143,40.484v30.038l597.107,12.8v-27.7A40.162,40.162,0,0,0,1244.243,794.847Z" transform="translate(-685.962 -779.014)" fill="url(#linear-gradient-12)"/>
        <path id="Path_19623" data-name="Path 19623" d="M844.087,855.119c0,7.49-6.521,13.4-14.581,13.21-8.077-.194-14.637-6.448-14.637-13.967s6.56-13.432,14.637-13.209C837.566,841.377,844.087,847.629,844.087,855.119Z" transform="translate(-763.928 -816.594)" fill="#fff"/>
        <path id="Path_19624" data-name="Path 19624" d="M973.164,858.591c0,7.44-6.434,13.316-14.387,13.124-7.969-.192-14.441-6.4-14.441-13.87s6.473-13.344,14.441-13.123C966.73,844.942,973.164,851.151,973.164,858.591Z" transform="translate(-842.233 -818.752)" fill="#fff"/>
        <path id="Path_19625" data-name="Path 19625" d="M1100.52,862.017c0,7.39-6.349,13.228-14.2,13.039-7.863-.189-14.25-6.357-14.25-13.775s6.386-13.256,14.25-13.038C1094.171,848.459,1100.52,854.626,1100.52,862.017Z" transform="translate(-919.493 -820.881)" fill="#fff"/>
        <g id="Group_17939" data-name="Group 17939" transform="translate(74.143 127.411)">
          <g id="Group_17938" data-name="Group 17938">
            <g id="Group_17937" data-name="Group 17937">
              <g id="Group_17935" data-name="Group 17935">
                <path id="Path_19626" data-name="Path 19626" d="M1091.024,1305.413l-211.205-.335a6.006,6.006,0,0,1-6.236-5.727v-13.437a5.954,5.954,0,0,1,6.236-5.681l211.205,1.185a5.7,5.7,0,0,1,5.805,5.542v12.952A5.652,5.652,0,0,1,1091.024,1305.413Z" transform="translate(-873.583 -1209.575)" fill="#fff"/>
                <path id="Path_19627" data-name="Path 19627" d="M910.09,1355.916l18.158,66.591a10.031,10.031,0,0,0,9.978,7.07l140.6-1.58a9.836,9.836,0,0,0,9.5-7.1l17.123-64.83Zm52.121,62.686a5.052,5.052,0,0,1-5.172,4.837l-4.935.051a4.944,4.944,0,0,1-5.189-4.742v-51.612a5.007,5.007,0,0,1,5.189-4.8h4.935a4.988,4.988,0,0,1,5.172,4.782Zm27.439-.26a5.016,5.016,0,0,1-5.126,4.815l-4.891.05a4.909,4.909,0,0,1-5.143-4.722v-51.38a4.972,4.972,0,0,1,5.143-4.776h4.891a4.952,4.952,0,0,1,5.126,4.761Zm27.194-.258a4.981,4.981,0,0,1-5.08,4.793l-4.847.05a4.874,4.874,0,0,1-5.1-4.7v-51.149a4.937,4.937,0,0,1,5.1-4.754h4.847a4.918,4.918,0,0,1,5.08,4.74Zm26.952-.256a4.946,4.946,0,0,1-5.035,4.771l-4.8.049a4.84,4.84,0,0,1-5.052-4.68v-50.921a4.9,4.9,0,0,1,5.052-4.733h4.8a4.883,4.883,0,0,1,5.035,4.718Zm26.713-.254a4.912,4.912,0,0,1-4.991,4.75l-4.762.049a4.807,4.807,0,0,1-5.007-4.659v-50.7a4.868,4.868,0,0,1,5.007-4.712h4.762a4.849,4.849,0,0,1,4.991,4.7Z" transform="translate(-895.663 -1255.35)" fill="#fff"/>
                <g id="Group_17934" data-name="Group 17934" transform="translate(25.368)">
                  <g id="Group_17932" data-name="Group 17932">
                    <path id="Path_19628" data-name="Path 19628" d="M950.564,1244.423a8.194,8.194,0,0,1-10.883-.762,6.707,6.707,0,0,1,.749-10.022,8.2,8.2,0,0,1,10.881.78A6.708,6.708,0,0,1,950.564,1244.423Z" transform="translate(-937.778 -1180.363)" fill="#d8dee8"/>
                    <path id="Path_19629" data-name="Path 19629" d="M1029.277,1102.217c-1.058-1.149-3.246-1.025-4.887.279L957.515,1155.6c-1.679,1.333-2.162,3.349-1.078,4.5s3.321,1.005,5-.328l66.79-53.118C1029.863,1105.353,1030.334,1103.366,1029.277,1102.217Z" transform="translate(-948.713 -1101.43)" fill="#fff"/>
                  </g>
                  <g id="Group_17933" data-name="Group 17933" transform="translate(95.473 0.336)">
                    <path id="Path_19630" data-name="Path 19630" d="M1343.865,1247.554a7.61,7.61,0,0,0,10.325-.6,6.665,6.665,0,0,0-.708-9.756,7.61,7.61,0,0,0-10.328.584A6.665,6.665,0,0,0,1343.865,1247.554Z" transform="translate(-1277.341 -1182.827)" fill="#d8dee8"/>
                    <path id="Path_19631" data-name="Path 19631" d="M1179.937,1103c1.052-1.11,3.226-.91,4.855.444l64.9,53.98c1.593,1.325,2.051,3.3,1.023,4.4s-3.154.931-4.749-.394l-64.977-53.97C1179.354,1106.106,1178.885,1104.107,1179.937,1103Z" transform="translate(-1179.375 -1102.279)" fill="#fff"/>
                  </g>
                </g>
              </g>
              <g id="Group_17936" data-name="Group 17936" transform="translate(245.577 2.455)">
                <path id="Path_19632" data-name="Path 19632" d="M1712.816,1137.532l-217.791-2.78v-27.109l217.791,3.775Z" transform="translate(-1495.025 -1107.643)" fill="#fff"/>
                <path id="Path_19633" data-name="Path 19633" d="M1712.816,1255.891l-217.791-1.038v-27.109l217.791,2.033Z" transform="translate(-1495.025 -1180.283)" fill="#fff"/>
                <path id="Path_19634" data-name="Path 19634" d="M1712.816,1374.25l-217.791.7v-27.109l217.791.291Z" transform="translate(-1495.025 -1252.924)" fill="#fff"/>
                <path id="Path_19635" data-name="Path 19635" d="M1712.816,1490.388l-217.791,2.447v-27.109l217.791-1.452Z" transform="translate(-1495.025 -1323.343)" fill="#fff"/>
              </g>
            </g>
          </g>
        </g>
        <g id="Group_17941" data-name="Group 17941" transform="translate(111.22 341.064)">
          <g id="Group_17940" data-name="Group 17940">
            <path id="Path_19636" data-name="Path 19636" d="M1364.077,1829.041c0,109.672-88.373,204.485-197.722,211.8-109.722,7.334-198.945-76.158-198.945-186.508s89.223-205.219,198.945-211.873C1275.7,1635.823,1364.077,1719.369,1364.077,1829.041Z" transform="translate(-967.409 -1642.086)" fill="url(#linear-gradient-13)"/>
            <path id="Path_19637" data-name="Path 19637" d="M1178.5,1651.45c47.763,0,92.168,18.159,125.036,51.131,33,33.108,51.178,78.019,51.178,126.461,0,50.679-19.653,99.651-55.337,137.9s-83.159,61.182-133.646,64.557c-4.246.284-8.537.428-12.753.428-47.73,0-92.113-18.128-124.973-51.043-33.037-33.094-51.232-78.036-51.232-126.549,0-105.314,85.3-196.168,190.149-202.527,3.845-.233,7.738-.352,11.576-.352Zm-.01-9.364c-4.01,0-8.063.122-12.134.369-109.723,6.655-198.945,101.523-198.945,211.873,0,105.831,82.06,186.956,185.568,186.956q6.63,0,13.378-.449c109.35-7.309,197.722-102.124,197.722-211.795,0-105.588-81.9-186.961-185.588-186.955Z" transform="translate(-967.409 -1642.086)" fill="#fff"/>
          </g>
        </g>
        <g id="Group_17942" data-name="Group 17942" transform="translate(215.612 432.01)">
          <path id="Path_19638" data-name="Path 19638" d="M1410.833,2092.555a19.251,19.251,0,0,1-16.133-5.666l-155.477-156.725c-10.2-10.281-10.2-27.7,0-38.758,10.119-10.969,26.355-11.4,36.269-1.108l151.26,157.024c8.7,9.034,8.7,25.065,0,35.938A24.213,24.213,0,0,1,1410.833,2092.555Z" transform="translate(-1231.575 -1878.665)" fill="#fff"/>
          <path id="Path_19639" data-name="Path 19639" d="M1257.487,2103.959a22.5,22.5,0,0,1-18.263-5.9c-10.2-9.59-10.2-27.011,0-38.758L1394.7,1880.222c8.937-10.293,23.286-10.672,32.052-.979,8.7,9.622,8.7,25.653,0,35.938l-151.26,178.769A28.032,28.032,0,0,1,1257.487,2103.959Z" transform="translate(-1231.575 -1872.229)" fill="#fff"/>
        </g>
      </g>
      <g id="Group_17950" data-name="Group 17950" transform="translate(1127.152 783.842)">
        <path id="Path_19640" data-name="Path 19640" d="M2394.662,1596.661c-12.917-13.792,22.842-65.6,41.982-88.308,16.721-19.834,33.907-40.22,55.011-37.64,18.53,2.266,36.56,21.807,37.639,40.535C2532.2,1561.63,2413.026,1616.267,2394.662,1596.661Z" transform="translate(-2281.047 -1398.038)" fill="url(#linear-gradient-14)"/>
        <path id="Path_19641" data-name="Path 19641" d="M2728.085,3136.052c2.432,1.976,2.879,6.912,3.17,10.139a7.961,7.961,0,0,1,.035,2.671c-1.175,3.713-8.376,4.1-19.669,5.258-17.846,1.823-23.157,3.228-24.553.572-1.309-2.489,1.858-6.564,2.215-7.013,1.917-2.416,4.271-3.294,8.821-4.792,8.419-2.771,14.108-4.288,15.831-4.748C2724.691,3135.268,2726.488,3134.755,2728.085,3136.052Z" transform="translate(-2459.374 -2405.005)" fill="url(#linear-gradient-15)"/>
        <path id="Path_19642" data-name="Path 19642" d="M2761.754,3095.828l-1.786,20.336c.507.982,6.552,3.928,11.353,1.4l4.588-19.99Z" transform="translate(-2503.656 -2381.084)" fill="url(#linear-gradient-16)"/>
        <path id="Path_19643" data-name="Path 19643" d="M2362.127,3125.9c2.914,3.218,3.578,9.145,1.044,12.064-2.491,2.87-6.237.718-16.859,1.034-11.379.34-14.35,3.028-22.083.894-3.124-.864-8.641-2.958-8.536-5.189.073-1.569,2.882-2.379,12.264-5.522,13.317-4.461,13.259-4.7,16.086-5.173C2351.146,3122.828,2358.278,3121.646,2362.127,3125.9Z" transform="translate(-2234.945 -2397.462)" fill="url(#linear-gradient-17)"/>
        <path id="Path_19644" data-name="Path 19644" d="M2406.014,3083.506l-5.708,18.985c.431,1.018,6.233,4.415,11.212,2.264l8.477-18.427Z" transform="translate(-2286.124 -2373.632)" fill="url(#linear-gradient-16)"/>
        <path id="Path_19645" data-name="Path 19645" d="M2457.063,2031.327a1778.55,1778.55,0,0,1-56.2,421.32l21.845,5.877c18.474-17.226,41.779-44.343,53.024-82.663,6.98-23.784,4.654-36.006,9.081-65.26,7.049-46.578,21.326-70.981,36.084-108.542,13.261-33.752,28.936-83.286,37.341-149.5Z" transform="translate(-2286.463 -1737.246)" fill="url(#linear-gradient-19)"/>
        <path id="Path_19646" data-name="Path 19646" d="M2709.406,2015.474q6.686,121.72,10.9,247.925,3.128,94.686,4.633,186.951l22.315,2.755a259.882,259.882,0,0,0,23.273-60.062c7.943-31.847,6.1-50.76,9.587-83.766,3.908-37.02,9.585-45.085,19.641-91.785,20.411-94.776,30.616-142.166,7.848-171.643C2800.212,2036.278,2777.042,2012.273,2709.406,2015.474Z" transform="translate(-2473.075 -1727.482)" fill="url(#linear-gradient-20)"/>
        <path id="Path_19647" data-name="Path 19647" d="M2698.26,1478.195a346.491,346.491,0,0,0-74.214-12.394c-44.593-2.52-66.89-3.78-82.69,6.839-36.492,24.527-8.24,81.135-23.178,221.46-2.133,20.039-2.611,40.222-4.156,60.315-2.558,33.269-3.141,35.075-.826,38.447,14.516,21.14,68.675-10.746,148.055,1.858,44.415,7.052,64.558,23.3,76.727,11.581,14.19-13.667,2.018-50.426-8.46-82.07-12.027-36.323-19.457-36.79-26.284-64.145-7.136-28.592-2.82-43.314-1.708-88.4A798.626,798.626,0,0,0,2698.26,1478.195Z" transform="translate(-2353.523 -1394.146)" fill="url(#linear-gradient-21)"/>
        <g id="Group_17944" data-name="Group 17944" transform="translate(167.963 135.202)" opacity="0.3" style="mix-blend-mode: multiply;isolation: isolate">
          <path id="Path_19648" data-name="Path 19648" d="M2605.227,1841.568c20.748-1.623,34.207,10.106,52.116.965,24.558-12.535,32.449-51.536,30.884-79.139-2.378-41.94-26.326-52.995-22.2-80.1,2.232-14.661,12.7-34.126,50.281-54.012.5,16.737.406,31,.127,42.337-1.111,45.088-5.427,59.81,1.709,88.4,6.827,27.355,14.257,27.823,26.284,64.145,10.478,31.644,22.65,68.4,8.46,82.07-12.168,11.719-32.312-4.529-76.727-11.581-68.4-10.861-118.043,11.283-139.765,4.1C2562.645,1855.377,2586.452,1843.037,2605.227,1841.568Z" transform="translate(-2536.398 -1629.278)" fill="url(#linear-gradient-22)"/>
        </g>
        <path id="Path_19649" data-name="Path 19649" d="M2833.548,1499.585c14.817-12.175,44.612,1.607,52.577,5.291,44.414,20.544,84.292,75.905,74.411,134.41-1.481,8.775-8.353,49.815-43.1,69.7-31.356,17.943-73.7,13.328-107.622-12.085l-13.909-12.341q-6.841-7.395-13.684-14.791a109.838,109.838,0,0,1,36.461-20.088c22.557-7.279,38.979,5.782,49.445-4.147,7.223-6.853,7.239-18.957,5.456-26.292-3.595-14.785-16.627-18.942-27.506-29.436C2820.515,1565.151,2815.806,1514.163,2833.548,1499.585Z" transform="translate(-2517.112 -1412.656)" fill="url(#linear-gradient-23)"/>
        <g id="Group_17945" data-name="Group 17945" transform="translate(102.985 274.74)">
          <path id="Path_19650" data-name="Path 19650" d="M2372.476,1985.9l198.613-2.965-52.814,25.489-146.306-9.575Z" transform="translate(-2371.968 -1982.716)" fill="url(#linear-gradient-24)"/>
          <path id="Path_19651" data-name="Path 19651" d="M2787.1,1987.879h0a8.84,8.84,0,0,1-5.819,8.307l-63.464,24.879-.289-17.249L2780.1,1982.6A5.492,5.492,0,0,1,2787.1,1987.879Z" transform="translate(-2580.975 -1982.384)" fill="url(#linear-gradient-25)"/>
        </g>
        <path id="Path_19652" data-name="Path 19652" d="M2740.2,1946.624c1.219-.272-5.938-14.533-11.557-12.888s-33.1,17.572-35.6,24.13l-2.5,6.557s11.987.937,19.421-1.561S2730.289,1948.833,2740.2,1946.624Z" transform="translate(-2461.669 -1678.141)" fill="url(#linear-gradient-16)"/>
        <g id="Group_17947" data-name="Group 17947" transform="translate(0 162.685)">
          <g id="Group_17946" data-name="Group 17946">
            <path id="Path_19653" data-name="Path 19653" d="M2345.972,1711.292l14,127.469c.483,4.4-5.674,10.951-10.094,10.742L2144.5,1836.895a7.2,7.2,0,0,1-6.756-5.974l-25.777-123.112c-.769-4.48,7.284-9.107,11.828-8.98l215.221,6.051A7.2,7.2,0,0,1,2345.972,1711.292Z" transform="translate(-2111.698 -1698.826)" fill="url(#linear-gradient-27)"/>
            <path id="Path_19654" data-name="Path 19654" d="M2340.943,1720.7l14,127.47a7.2,7.2,0,0,1-7.5,7.979l-207.973-9.846a7.2,7.2,0,0,1-6.756-5.973l-21.248-123.676a7.2,7.2,0,0,1,7.3-8.417l215.221,6.051A7.2,7.2,0,0,1,2340.943,1720.7Z" transform="translate(-2111.362 -1704.515)" fill="url(#linear-gradient-28)"/>
          </g>
          <path id="Path_19655" data-name="Path 19655" d="M2247.016,1825.027c18.159-7.7,11.75-22.374,33.194-40.663,28.29-24.127,57.124-13.664,67.219-32.364,3.144-5.825,4.645-14.887-.831-29.556l15.585.438a7.2,7.2,0,0,1,6.955,6.412l14,127.47a7.2,7.2,0,0,1-7.5,7.979l-207.974-9.846a7.2,7.2,0,0,1-6.756-5.973l-2.932-17.066a78.561,78.561,0,0,1,22.649-8.49C2211.139,1817.179,2226.109,1833.888,2247.016,1825.027Z" transform="translate(-2139.557 -1713.111)" opacity="0.3" fill="url(#linear-gradient-29)" style="mix-blend-mode: multiply;isolation: isolate"/>
        </g>
        <path id="Path_19656" data-name="Path 19656" d="M2149.21,2009.087a1.623,1.623,0,0,1,1.459-2.14c4.4-.224,14.59-.315,20.218,3.131,7.311,4.478,16.764,12.65,8.8,16.773l-7.433,3.851a1.587,1.587,0,0,1-1.088.15c-2.641-.581-13.759-3.047-14.975-3.66C2155.087,2026.635,2150.848,2014.056,2149.21,2009.087Z" transform="translate(-2134.202 -1722.445)" fill="url(#linear-gradient-16)"/>
        <g id="Group_17949" data-name="Group 17949" transform="translate(221.506)">
          <path id="Path_19657" data-name="Path 19657" d="M2717.576,1345.184a154.472,154.472,0,0,0,2.759,30.885c1.6,8.227,2.75,10.352,4.22,12.077,2.212,2.6,5.565,4.773,24.509,9.471,10.309,2.556,11.635,2.486,11.863,3.509,1.111,4.991-27,22-56.042,17.9-17.774-2.509-33.946-12.649-32.953-17.974,1-5.359,18.753-2.483,24.045-12.178,3.681-6.745-.445-16.32-5.323-24.25C2695.379,1355.772,2712.853,1354.035,2717.576,1345.184Z" transform="translate(-2671.889 -1322.249)" fill="url(#linear-gradient-31)"/>
          <g id="Group_17948" data-name="Group 17948" transform="translate(9.502)">
            <path id="Path_19658" data-name="Path 19658" d="M2699.13,1315.308c-4.194-5.572-4.453-15.3.38-21.449,4.159-5.291,10.7-6.046,14.623-6.5,11.355-1.311,25.683,3.429,30.667,13.88,2.953,6.193-3.435,19.062-4.435,21.376-1.133,2.616-3.186,3.513-5.086,5.491-2.633,2.743-6.755,7.1-13.483,14.4a46.775,46.775,0,0,0-2.581-7.705,41.316,41.316,0,0,0-5.392-9.054C2707.905,1318.529,2703.107,1320.588,2699.13,1315.308Z" transform="translate(-2695.934 -1287.146)" fill="url(#linear-gradient-32)"/>
            <path id="Path_19659" data-name="Path 19659" d="M2733.3,1368.762s-7.465,12.246-22.328,11.279c-13.307-.866-15.256-30.708-6.757-37.041,2.836-2.112,8.515-2.989,13.133-1.7,2.727.765,3.651,1.9,8.131,3.059,4.134,1.073,5.3.615,6.548,1.664,1.56,1.314,2.7,4.533.1,13.257,2.539-2.57,5.586-3.557,7.746-2.537a4.546,4.546,0,0,1,1.772,1.727C2743.507,1361.883,2740.393,1366.236,2733.3,1368.762Z" transform="translate(-2697.844 -1319.536)" fill="url(#linear-gradient-16)"/>
            <path id="Path_19660" data-name="Path 19660" d="M2731.975,1349.56c-.642.479,1.32,2.873,1.466,6.262.285,6.578-6.374,14.474-13.166,15.143-4.016.4-5.119-2.025-11.758-2.726a30.423,30.423,0,0,0-9.684.559c-2.086,7.215-.123,14.407,4.7,17.744,5.191,3.594,11.823,1.414,14.6.5,1.854-.61,7.8-2.551,10.9-8,3.237-5.68.061-9.1,3.774-12.945,1.873-1.938,4.333-2.777,6.728-6.528a18.5,18.5,0,0,0,1.35-2.528C2737.451,1353.4,2732.9,1348.866,2731.975,1349.56Z" transform="translate(-2697.188 -1324.853)" fill="url(#linear-gradient-34)"/>
            <path id="Path_19661" data-name="Path 19661" d="M2710.662,1405.023a16.2,16.2,0,0,0,7.84,1.222c.241-.014.508.057.539.182.114.471-3.072,2.584-6.008,1.758-2.084-.586-3.706-2.56-3.426-3.062C2709.727,1404.913,2710.2,1404.94,2710.662,1405.023Z" transform="translate(-2704.185 -1358.404)" fill="url(#linear-gradient-16)"/>
          </g>
        </g>
      </g>
    </g>
  </g>
</svg>
